<svg xmlns="http://www.w3.org/2000/svg" xmlns:svg="http://www.w3.org/2000/svg" xmlns:xlink="http://www.w3.org/1999/xlink" version="1.0" height="900.4000002980232pt" width="976.7pt" viewBox="290 52 984.7 906.4000002980232" ><defs><style type="text/css">
            @font-face {
                font-family: 'noto_regular';
                src: url('https://app.creately.com/diagram/assets/fonts/noto/noto-regular.woff') format('woff'),
                     url('https://app.creately.com/diagram/assets/fonts/noto/noto-regular.woff2') format('woff2');
                font-weight: normal;
                font-style: normal;
            }
        p {
            margin: 0;
        }
        </style></defs><defs><style>
            span{ display: inline-block; }
        </style></defs><g id="3i6i1rzkoy"><g transform="translate(295 55)"><rect x="0" y="0" width="933" height="90" fill="rgba(255,255,255,0.01)" stroke="rgba(255,255,255,0.01)" stroke-width="NaN" stroke-linecap="round" stroke-linejoin="round"/></g><g transform="translate(489.5, 88) rotate(0, 272, 12)" width="544" height="24"><text text-decoration="none" x="58.5" fill="rgb(0, 0, 0)" font-weight="bold" font-size="15pt" font-family="Arial"  y="19">E-R&#160;</text><text text-decoration="none" x="95.5" fill="rgb(0, 0, 0)" font-weight="bold" font-size="15pt" font-family="Arial"  y="19">Diagram&#160;</text><text text-decoration="none" x="175.5" fill="rgb(0, 0, 0)" font-weight="bold" font-size="15pt" font-family="Arial"  y="19">for&#160;</text><text text-decoration="none" x="205.5" fill="rgb(0, 0, 0)" font-weight="bold" font-size="15pt" font-family="Arial"  y="19">Inventory&#160;</text><text text-decoration="none" x="294.5" fill="rgb(0, 0, 0)" font-weight="bold" font-size="15pt" font-family="Arial"  y="19">Management&#160;</text><text text-decoration="none" x="418.5" fill="rgb(0, 0, 0)" font-weight="bold" font-size="15pt" font-family="Arial"  y="19">System</text><text text-decoration="none" x="485.5" fill="#4b4b4b" font-size="10pt" font-family="noto_regular"  y="19"></text></g></g><g id="1kounjvac7"><g transform="translate(605 315)"><linearGradient id="59fb9" x1="51" y1="-26" x2="51" y2="52" gradientUnits="userSpaceOnUse"><stop offset="0%" stop-color="rgba(255,255,255,1)"/><stop offset="100%" stop-color="rgba(255,179,0,1)"/></linearGradient><rect x="0" y="0" width="102" height="52" fill="url(#59fb9)" stroke="#ed7710" stroke-width="2" stroke-linecap="round" stroke-linejoin="round"/></g><g transform="translate(627.5, 331.5) rotate(0, 28.5, 9.5)" width="57" height="19"><text text-decoration="none" x="6" fill="rgb(157, 0, 57)" font-weight="bold" font-size="10pt" font-family="Arial"  y="15">Storage</text><text text-decoration="none" x="51" fill="#4b4b4b" font-size="10pt" font-family="noto_regular"  y="15"></text></g></g><g id="2e9w6x3fkj"><g transform="translate(753.55 313.75)"><linearGradient id="54543" x1="45.53194096684456" y1="69.00104919075966" x2="45.53194096684456" y2="0" gradientUnits="userSpaceOnUse"><stop offset="0%" stop-color="rgba(255,255,255,1)"/><stop offset="100%" stop-color="rgba(156,218,215,1)"/></linearGradient><ellipse cx="45.53194096684456" cy="23.00034973025322" rx="45.53194096684456" ry="23.00034973025322" fill="url(#54543)" stroke="#0072bc" stroke-width="2" stroke-linecap="round" stroke-linejoin="round"/></g><g transform="translate(780.0819409668445, 327.2503497302532) rotate(0, 19, 9.5)" width="38" height="19"><text text-decoration="underline" x="4" fill="rgb(20, 56, 114)" font-weight="bold" font-size="10pt" font-family="Arial"  y="15">Sno#</text><text text-decoration="none" x="34" fill="#4b4b4b" font-size="10pt" font-family="noto_regular"  y="15"></text></g></g><g id="18qpy9sd8s"><g transform="translate(535 185)"><linearGradient id="f3f8a" x1="50.5" y1="76.5" x2="50.5" y2="0" gradientUnits="userSpaceOnUse"><stop offset="0%" stop-color="rgba(255,255,255,1)"/><stop offset="100%" stop-color="rgba(156,218,215,1)"/></linearGradient><ellipse cx="50.5" cy="25.5" rx="50.5" ry="25.5" fill="url(#f3f8a)" stroke="#0072bc" stroke-width="2" stroke-linecap="round" stroke-linejoin="round"/></g><g transform="translate(564, 201) rotate(0, 21.5, 9.5)" width="43" height="19"><text text-decoration="none" x="4.5" fill="rgb(20, 56, 114)" font-weight="bold" font-size="10pt" font-family="Arial"  y="15">Name</text><text text-decoration="none" x="38.5" fill="#4b4b4b" font-size="10pt" font-family="noto_regular"  y="15"></text></g></g><g id="10g99mcmdt"><g transform="translate(470 315.75)"><linearGradient id="f3f8a" x1="50.5" y1="76.5" x2="50.5" y2="0" gradientUnits="userSpaceOnUse"><stop offset="0%" stop-color="rgba(255,255,255,1)"/><stop offset="100%" stop-color="rgba(156,218,215,1)"/></linearGradient><ellipse cx="50.5" cy="25.5" rx="50.5" ry="25.5" fill="url(#f3f8a)" stroke="#0072bc" stroke-width="2" stroke-linecap="round" stroke-linejoin="round"/></g><g transform="translate(491, 331.75) rotate(0, 29.5, 9.5)" width="59" height="19"><text text-decoration="none" x="6.5" fill="rgb(20, 56, 114)" font-weight="bold" font-size="10pt" font-family="Arial"  y="15">Position</text><text text-decoration="none" x="52.5" fill="#4b4b4b" font-size="10pt" font-family="noto_regular"  y="15"></text></g></g><g id="1q9jv05e8e"><g><path d="M 585,235 L 655,315" fill="none" stroke="#5e5ca7" stroke-width="1.5" stroke-linecap="round" stroke-linejoin="round"/></g></g><g id="22p6lt1iqn"><g><path d="M 753.55,338.75 L 705,340" fill="none" stroke="#5e5ca7" stroke-width="1.5" stroke-linecap="round" stroke-linejoin="round"/></g></g><g id="7c3gfttw7h"><g><path d="M 570,340.75 L 605,340" fill="none" stroke="#5e5ca7" stroke-width="1.5" stroke-linecap="round" stroke-linejoin="round"/></g></g><g id="1oalxmlnjq"><g transform="translate(461 251)"><linearGradient id="1924b" x1="42.99999922513962" y1="-20.500000298023224" x2="42.99999922513962" y2="41.00000059604645" gradientUnits="userSpaceOnUse"><stop offset="0%" stop-color="rgba(255,255,255,1)"/><stop offset="100%" stop-color="rgba(143,198,61,1)"/></linearGradient><ellipse cx="42.99999922513962" cy="20.500000298023224" rx="42.99999922513962" ry="20.500000298023224" fill="url(#1924b)" stroke="#007236" stroke-width="2" stroke-linecap="round" stroke-linejoin="round"/></g><g transform="translate(495.4999992251396, 262.0000002980232) rotate(0, 8.5, 9.5)" width="17" height="19"><text text-decoration="none" x="1.5" fill="rgb(14, 68, 14)" font-weight="bold" font-size="10pt" font-family="Arial"  y="15">L1</text><text text-decoration="none" x="15.5" fill="#4b4b4b" font-size="10pt" font-family="noto_regular"  y="15"></text></g></g><g id="1s1nxmi8dx"><g><path d="M 506,291 L 520,315.75" fill="none" stroke="#5e5ca7" stroke-width="1.5" stroke-linecap="round" stroke-linejoin="round"/></g></g><g id="29xcqr5fo0"><g transform="translate(345 315)"><linearGradient id="b5f0c" x1="42.99999922513962" y1="-23.000000149011612" x2="42.99999922513962" y2="46.000000298023224" gradientUnits="userSpaceOnUse"><stop offset="0%" stop-color="rgba(255,255,255,1)"/><stop offset="100%" stop-color="rgba(143,198,61,1)"/></linearGradient><ellipse cx="42.99999922513962" cy="23.000000149011612" rx="42.99999922513962" ry="23.000000149011612" fill="url(#b5f0c)" stroke="#007236" stroke-width="2" stroke-linecap="round" stroke-linejoin="round"/></g><g transform="translate(379.4999992251396, 328.5000001490116) rotate(0, 8.5, 9.5)" width="17" height="19"><text text-decoration="none" x="1.5" fill="rgb(14, 68, 14)" font-weight="bold" font-size="10pt" font-family="Arial"  y="15">L2</text><text text-decoration="none" x="15.5" fill="#4b4b4b" font-size="10pt" font-family="noto_regular"  y="15"></text></g></g><g id="1carhfoyuv"><g><path d="M 430,340 L 470,340.75" fill="none" stroke="#5e5ca7" stroke-width="1.5" stroke-linecap="round" stroke-linejoin="round"/></g></g><g id="9b0gwmfeim"><g transform="translate(441 393.8)"><linearGradient id="b5f0c" x1="42.99999922513962" y1="-23.000000149011612" x2="42.99999922513962" y2="46.000000298023224" gradientUnits="userSpaceOnUse"><stop offset="0%" stop-color="rgba(255,255,255,1)"/><stop offset="100%" stop-color="rgba(143,198,61,1)"/></linearGradient><ellipse cx="42.99999922513962" cy="23.000000149011612" rx="42.99999922513962" ry="23.000000149011612" fill="url(#b5f0c)" stroke="#007236" stroke-width="2" stroke-linecap="round" stroke-linejoin="round"/></g><g transform="translate(475.4999992251396, 407.3000001490116) rotate(0, 8.5, 9.5)" width="17" height="19"><text text-decoration="none" x="1.5" fill="rgb(14, 68, 14)" font-weight="bold" font-size="10pt" font-family="Arial"  y="15">L3</text><text text-decoration="none" x="15.5" fill="#4b4b4b" font-size="10pt" font-family="noto_regular"  y="15"></text></g></g><g id="gzftduqj00"><g><path d="M 486,393.8 L 520,365.75" fill="none" stroke="#5e5ca7" stroke-width="1.5" stroke-linecap="round" stroke-linejoin="round"/></g></g><g id="1pz62vl797"><g transform="translate(590 399.65)"><path d="M 124.75247383117676,32.35294222831726 L 62.37623691558838,64.70588445663452 L 0,32.35294222831726 L 62.37623691558838,0 Z" fill="rgb(254, 55, 74)" stroke="rgb(254, 55, 74)" stroke-width="2" vector-effect="non-scaling-stroke" stroke-dasharray=""/></g><g transform="translate(589.5795, 413.41999999999996) rotate(0, 64, 0)" width="128" height="37"><text text-decoration="none" x="14" fill="#ffe8e9" font-weight="bold" font-size="11pt" font-family="Arial"  y="14">Replenishment</text><text text-decoration="none" x="114" fill="#ffe8e9" font-weight="bold" font-size="11pt" font-family="Arial"  y="14"></text><text text-decoration="none" x="45" fill="#ffe8e9" font-weight="bold" font-size="11pt" font-family="Arial"  y="33">(add)&#160;</text><text text-decoration="none" x="83" fill="#4b4b4b" font-size="10pt" font-family="noto_regular"  y="33"></text></g></g><g id="5aef92ep6v"><g><path d="M 655,365 L 655,399.65" fill="none" stroke="#5e5ca7" stroke-width="1.5" stroke-linecap="round" stroke-linejoin="round"/></g></g><g id="23624r5r8x"><g transform="translate(605 547.85)"><linearGradient id="59fb9" x1="51" y1="-26" x2="51" y2="52" gradientUnits="userSpaceOnUse"><stop offset="0%" stop-color="rgba(255,255,255,1)"/><stop offset="100%" stop-color="rgba(255,179,0,1)"/></linearGradient><rect x="0" y="0" width="102" height="52" fill="url(#59fb9)" stroke="#ed7710" stroke-width="2" stroke-linecap="round" stroke-linejoin="round"/></g><g transform="translate(621.5, 564.35) rotate(0, 34.5, 9.5)" width="69" height="19"><text text-decoration="none" x="7" fill="rgb(157, 0, 57)" font-weight="bold" font-size="10pt" font-family="Arial"  y="15">Inventory</text><text text-decoration="none" x="62" fill="#4b4b4b" font-size="10pt" font-family="noto_regular"  y="15"></text></g></g><g id="2dc66d6ew9"><g transform="translate(510.75 484.6)"><linearGradient id="54543" x1="45.53194096684456" y1="69.00104919075966" x2="45.53194096684456" y2="0" gradientUnits="userSpaceOnUse"><stop offset="0%" stop-color="rgba(255,255,255,1)"/><stop offset="100%" stop-color="rgba(156,218,215,1)"/></linearGradient><ellipse cx="45.53194096684456" cy="23.00034973025322" rx="45.53194096684456" ry="23.00034973025322" fill="url(#54543)" stroke="#0072bc" stroke-width="2" stroke-linecap="round" stroke-linejoin="round"/></g><g transform="translate(525.2819409668446, 498.10034973025324) rotate(0, 31, 9.5)" width="62" height="19"><text text-decoration="none" x="7" fill="rgb(20, 56, 114)" font-weight="bold" font-size="10pt" font-family="Arial"  y="15">Quantity</text><text text-decoration="none" x="55" fill="#4b4b4b" font-size="10pt" font-family="noto_regular"  y="15"></text></g></g><g id="bl601mcli2"><g><path d="M 555.75,529.6 L 605,572.85" fill="none" stroke="#5e5ca7" stroke-width="1.5" stroke-linecap="round" stroke-linejoin="round"/></g></g><g id="1ulqwx7xvs"><g transform="translate(449.15 547.9)"><linearGradient id="d4277" x1="48.47708821296692" y1="73.19729626178741" x2="48.47708821296692" y2="0" gradientUnits="userSpaceOnUse"><stop offset="0%" stop-color="rgba(255,255,255,1)"/><stop offset="100%" stop-color="rgba(156,218,215,1)"/></linearGradient><ellipse cx="48.47708821296692" cy="24.399098753929138" rx="48.47708821296692" ry="24.399098753929138" fill="url(#d4277)" stroke="#0072bc" stroke-width="2" stroke-linecap="round" stroke-linejoin="round"/></g><g transform="translate(472.6270882129669, 562.7990987539291) rotate(0, 25, 9.5)" width="50" height="19"><text text-decoration="none" x="6" fill="rgb(20, 56, 114)" font-weight="bold" font-size="10pt" font-family="Arial"  y="15">ItemID</text><text text-decoration="none" x="44" fill="#4b4b4b" font-size="10pt" font-family="noto_regular"  y="15"></text></g></g><g id="14bpnnvvpx"><g><path d="M 544.15,572.9 L 605,572.85" fill="none" stroke="#5e5ca7" stroke-width="1.5" stroke-linecap="round" stroke-linejoin="round"/></g></g><g id="1t8p3fi2c2"><g transform="translate(495.04999999999995 620)"><linearGradient id="047d8" x1="53.03077685832977" y1="76.50115817785263" x2="53.03077685832977" y2="0" gradientUnits="userSpaceOnUse"><stop offset="0%" stop-color="rgba(255,255,255,1)"/><stop offset="100%" stop-color="rgba(156,218,215,1)"/></linearGradient><ellipse cx="53.03077685832977" cy="25.50038605928421" rx="53.03077685832977" ry="25.50038605928421" fill="url(#047d8)" stroke="#0072bc" stroke-width="2" stroke-linecap="round" stroke-linejoin="round"/></g><g transform="translate(500.0807768583297, 636.0003860592842) rotate(0, 48, 9.5)" width="96" height="19"><text text-decoration="none" x="10.5" fill="rgb(20, 56, 114)" font-weight="bold" font-size="10pt" font-family="Arial"  y="15">InventoryID#</text><text text-decoration="none" x="85.5" fill="#4b4b4b" font-size="10pt" font-family="noto_regular"  y="15"></text></g></g><g id="1ql7o67cer"><g><path d="M 550.05,620 L 605,572.85" fill="none" stroke="#5e5ca7" stroke-width="1.5" stroke-linecap="round" stroke-linejoin="round"/></g></g><g id="12ncotyv4z"><g transform="translate(566.3 679.6)"><path d="M 179.3988823890686,36.75212860107422 L 89.6994411945343,73.50425720214844 L 0,36.75212860107422 L 89.6994411945343,0 Z" fill="rgb(248, 218, 184)" stroke="rgb(255, 171, 173)" stroke-width="2" vector-effect="non-scaling-stroke" stroke-dasharray=""/></g><g transform="translate(592.6105, 706.0690000000001) rotate(0, 0, 0)" width="145" height="19"><text text-decoration="none" x="0" fill="#9e0013" font-weight="bold" font-size="11pt" font-family="Arial"  y="15">To&#160;</text><text text-decoration="none" x="21" fill="#9e0013" font-weight="bold" font-size="11pt" font-family="Arial"  y="15">provide&#160;</text><text text-decoration="none" x="74" fill="#9e0013" font-weight="bold" font-size="11pt" font-family="Arial"  y="15">detail&#160;</text><text text-decoration="none" x="115" fill="#4b4b4b" font-size="10pt" font-family="noto_regular"  y="15"></text></g></g><g id="3mjvq1vqld"><g transform="translate(606.65 813.15)"><linearGradient id="59fb9" x1="51" y1="-26" x2="51" y2="52" gradientUnits="userSpaceOnUse"><stop offset="0%" stop-color="rgba(255,255,255,1)"/><stop offset="100%" stop-color="rgba(255,179,0,1)"/></linearGradient><rect x="0" y="0" width="102" height="52" fill="url(#59fb9)" stroke="#ed7710" stroke-width="2" stroke-linecap="round" stroke-linejoin="round"/></g><g transform="translate(636.65, 829.65) rotate(0, 21, 9.5)" width="42" height="19"><text text-decoration="none" x="4.5" fill="rgb(157, 0, 57)" font-weight="bold" font-size="10pt" font-family="Arial"  y="15">Items</text><text text-decoration="none" x="37.5" fill="#4b4b4b" font-size="10pt" font-family="noto_regular"  y="15"></text></g></g><g id="2ahvfutyhj"><g><path d="M 575.4,838.15 L 606.65,838.15" fill="none" stroke="#5e5ca7" stroke-width="1.5" stroke-linecap="round" stroke-linejoin="round"/></g></g><g id="1c06ddevlk"><g transform="translate(755 539.6)"><path d="M 119.80379819869995,32.40869641304016 L 59.901899099349976,64.81739282608032 L 0,32.40869641304016 L 59.901899099349976,0 Z" fill="rgb(248, 218, 184)" stroke="rgb(255, 171, 173)" stroke-width="2" vector-effect="non-scaling-stroke" stroke-dasharray=""/></g><g transform="translate(770.105, 553.421) rotate(0, 46, 0)" width="92" height="37"><text text-decoration="none" x="21.5" fill="#9e0013" font-weight="bold" font-size="11pt" font-family="Arial"  y="14">Suplied</text><text text-decoration="none" x="70.5" fill="#9e0013" font-weight="bold" font-size="11pt" font-family="Arial"  y="14"></text><text text-decoration="none" x="10.5" fill="#9e0013" font-weight="bold" font-size="11pt" font-family="Arial"  y="33">(discount)&#160;</text><text text-decoration="none" x="81.5" fill="#4b4b4b" font-size="10pt" font-family="noto_regular"  y="33"></text></g></g><g id="2fwbdd63yf"><g transform="translate(743.75 803.15)"><path d="M 129.7029733657837,32.35294222831726 L 64.85148668289185,64.70588445663452 L 0,32.35294222831726 L 64.85148668289185,0 Z" fill="rgb(248, 218, 184)" stroke="rgb(255, 171, 173)" stroke-width="2" vector-effect="non-scaling-stroke" stroke-dasharray=""/></g><g transform="translate(775.06, 825.0799999999999) rotate(0, 0, 0)" width="75" height="19"><text text-decoration="none" x="0" fill="#9e0013" font-weight="bold" font-size="11pt" font-family="Arial"  y="15">Request&#160;</text><text text-decoration="none" x="59" fill="#4b4b4b" font-size="10pt" font-family="noto_regular"  y="15"></text></g></g><g id="c5wf3as3we"><g transform="translate(939.95 813.15)"><linearGradient id="6c560" x1="51.00231635570526" y1="-26.00118088722229" x2="51.00231635570526" y2="52.00236177444458" gradientUnits="userSpaceOnUse"><stop offset="0%" stop-color="rgba(255,255,255,1)"/><stop offset="100%" stop-color="rgba(255,179,0,1)"/></linearGradient><rect x="0" y="0" width="102.00463271141052" height="52.00236177444458" fill="url(#6c560)" stroke="#ed7710" stroke-width="2" stroke-linecap="round" stroke-linejoin="round"/></g><g transform="translate(966.4523163557053, 829.6511808872223) rotate(0, 24.5, 9.5)" width="49" height="19"><text text-decoration="none" x="4.5" fill="rgb(157, 0, 57)" font-weight="bold" font-size="10pt" font-family="Arial"  y="15">Orders</text><text text-decoration="none" x="44.5" fill="#4b4b4b" font-size="10pt" font-family="noto_regular"  y="15"></text></g></g><g id="57eg3m48es"><g transform="translate(1020 597.3)"><path d="M 124.75247383117676,34.80392098426819 L 62.37623691558838,69.60784196853638 L 0,34.80392098426819 L 62.37623691558838,0 Z" fill="rgb(248, 218, 184)" stroke="rgb(255, 171, 173)" stroke-width="2" vector-effect="non-scaling-stroke" stroke-dasharray=""/></g><g transform="translate(1040.6545, 621.7289999999999) rotate(0, 0, 0)" width="96" height="19"><text text-decoration="none" x="0" fill="#9e0013" font-weight="bold" font-size="11pt" font-family="Arial"  y="15">Needed&#160;</text><text text-decoration="none" x="55" fill="#9e0013" font-weight="bold" font-size="11pt" font-family="Arial"  y="15">by&#160;</text><text text-decoration="none" x="75" fill="#4b4b4b" font-size="10pt" font-family="noto_regular"  y="15"></text></g></g><g id="2blwwybxvw"><g transform="translate(1035 473.95)"><linearGradient id="59fb9" x1="51" y1="-26" x2="51" y2="52" gradientUnits="userSpaceOnUse"><stop offset="0%" stop-color="rgba(255,255,255,1)"/><stop offset="100%" stop-color="rgba(255,179,0,1)"/></linearGradient><rect x="0" y="0" width="102" height="52" fill="url(#59fb9)" stroke="#ed7710" stroke-width="2" stroke-linecap="round" stroke-linejoin="round"/></g><g transform="translate(1047.5, 490.45000000000005) rotate(0, 38.5, 9.5)" width="77" height="19"><text text-decoration="none" x="8" fill="rgb(157, 0, 57)" font-weight="bold" font-size="10pt" font-family="Arial"  y="15">Shipments</text><text text-decoration="none" x="69" fill="#4b4b4b" font-size="10pt" font-family="noto_regular"  y="15"></text></g></g><g id="2djd7bidas"><g transform="translate(1170.7 473.95)"><linearGradient id="f3f8a" x1="50.5" y1="76.5" x2="50.5" y2="0" gradientUnits="userSpaceOnUse"><stop offset="0%" stop-color="rgba(255,255,255,1)"/><stop offset="100%" stop-color="rgba(156,218,215,1)"/></linearGradient><ellipse cx="50.5" cy="25.5" rx="50.5" ry="25.5" fill="url(#f3f8a)" stroke="#0072bc" stroke-width="2" stroke-linecap="round" stroke-linejoin="round"/></g><g transform="translate(1186.7, 481.95000000000005) rotate(0, 34.5, 17.5)" width="69" height="35"><text text-decoration="underline" x="7.5" fill="rgb(20, 56, 114)" font-weight="bold" font-size="10pt" font-family="Arial"  y="12">Shipment&#160;</text><text text-decoration="underline" x="22.5" fill="rgb(20, 56, 114)" font-weight="bold" font-size="10pt" font-family="Arial"  y="31">No#</text><text text-decoration="none" x="46.5" fill="#4b4b4b" font-size="10pt" font-family="noto_regular"  y="31"></text></g></g><g id="233ae8j4qh"><g transform="translate(1025.85 378.95)"><linearGradient id="6848b" x1="60.14091193675995" y1="76.5" x2="60.14091193675995" y2="0" gradientUnits="userSpaceOnUse"><stop offset="0%" stop-color="rgba(255,255,255,1)"/><stop offset="100%" stop-color="rgba(156,218,215,1)"/></linearGradient><ellipse cx="60.14091193675995" cy="25.5" rx="60.14091193675995" ry="25.5" fill="url(#6848b)" stroke="#0072bc" stroke-width="2" stroke-linecap="round" stroke-linejoin="round"/></g><g transform="translate(1031.4909119367599, 394.95) rotate(0, 54.5, 9.5)" width="109" height="19"><text text-decoration="none" x="13" fill="rgb(20, 56, 114)" font-weight="bold" font-size="10pt" font-family="Arial"  y="15">Shipment&#160;</text><text text-decoration="none" x="70" fill="rgb(20, 56, 114)" font-weight="bold" font-size="10pt" font-family="Arial"  y="15">Date</text><text text-decoration="none" x="96" fill="#4b4b4b" font-size="10pt" font-family="noto_regular"  y="15"></text></g></g><g id="2hkwd4c19x"><g><path d="M 1085.85,428.95 L 1085,473.95" fill="none" stroke="#5e5ca7" stroke-width="1.5" stroke-linecap="round" stroke-linejoin="round"/></g></g><g id="9lsy3g3st6"><g><path d="M 1170.7,498.95 L 1135,498.95" fill="none" stroke="#5e5ca7" stroke-width="1.5" stroke-linecap="round" stroke-linejoin="round"/></g></g><g id="1rq7t2uo9n"><g transform="translate(939.95 903.15)"><linearGradient id="f3f8a" x1="50.5" y1="76.5" x2="50.5" y2="0" gradientUnits="userSpaceOnUse"><stop offset="0%" stop-color="rgba(255,255,255,1)"/><stop offset="100%" stop-color="rgba(156,218,215,1)"/></linearGradient><ellipse cx="50.5" cy="25.5" rx="50.5" ry="25.5" fill="url(#f3f8a)" stroke="#0072bc" stroke-width="2" stroke-linecap="round" stroke-linejoin="round"/></g><g transform="translate(955.45, 919.15) rotate(0, 35, 9.5)" width="70" height="19"><text text-decoration="underline" x="7" fill="rgb(20, 56, 114)" font-weight="bold" font-size="10pt" font-family="Arial"  y="15">OrederNo</text><text text-decoration="none" x="63" fill="#4b4b4b" font-size="10pt" font-family="noto_regular"  y="15"></text></g></g><g id="1wk79gbxuf"><g transform="translate(1077.5 904.4)"><linearGradient id="f3f8a" x1="50.5" y1="76.5" x2="50.5" y2="0" gradientUnits="userSpaceOnUse"><stop offset="0%" stop-color="rgba(255,255,255,1)"/><stop offset="100%" stop-color="rgba(156,218,215,1)"/></linearGradient><ellipse cx="50.5" cy="25.5" rx="50.5" ry="25.5" fill="url(#f3f8a)" stroke="#0072bc" stroke-width="2" stroke-linecap="round" stroke-linejoin="round"/></g><g transform="translate(1095.5, 912.4) rotate(0, 32.5, 17.5)" width="65" height="35"><text text-decoration="none" x="19.5" fill="rgb(20, 56, 114)" font-weight="bold" font-size="10pt" font-family="Arial"  y="12">Date</text><text text-decoration="none" x="45.5" fill="rgb(20, 56, 114)" font-weight="bold" font-size="10pt" font-family="Arial"  y="12"></text><text text-decoration="none" x="7" fill="rgb(20, 56, 114)" font-weight="bold" font-size="10pt" font-family="Arial"  y="31">Required</text><text text-decoration="none" x="58" fill="#4b4b4b" font-size="10pt" font-family="noto_regular"  y="31"></text></g></g><g id="2dckgln6wz"><g transform="translate(809.95 901.9)"><linearGradient id="f3f8a" x1="50.5" y1="76.5" x2="50.5" y2="0" gradientUnits="userSpaceOnUse"><stop offset="0%" stop-color="rgba(255,255,255,1)"/><stop offset="100%" stop-color="rgba(156,218,215,1)"/></linearGradient><ellipse cx="50.5" cy="25.5" rx="50.5" ry="25.5" fill="url(#f3f8a)" stroke="#0072bc" stroke-width="2" stroke-linecap="round" stroke-linejoin="round"/></g><g transform="translate(820.95, 909.9) rotate(0, 39.5, 17.5)" width="79" height="35"><text text-decoration="none" x="26.5" fill="rgb(20, 56, 114)" font-weight="bold" font-size="10pt" font-family="Arial"  y="12">Date</text><text text-decoration="none" x="52.5" fill="rgb(20, 56, 114)" font-weight="bold" font-size="10pt" font-family="Arial"  y="12"></text><text text-decoration="none" x="8.5" fill="rgb(20, 56, 114)" font-weight="bold" font-size="10pt" font-family="Arial"  y="31">Completed</text><text text-decoration="none" x="70.5" fill="#4b4b4b" font-size="10pt" font-family="noto_regular"  y="31"></text></g></g><g id="21t1bg9l3l"><g><path d="M 1127.5,904.4 L 989.95,863.15" fill="none" stroke="#5e5ca7" stroke-width="1.5" stroke-linecap="round" stroke-linejoin="round"/></g></g><g id="15ek3lrgli"><g><path d="M 859.95,901.9 L 989.95,863.15" fill="none" stroke="#5e5ca7" stroke-width="1.5" stroke-linecap="round" stroke-linejoin="round"/></g></g><g id="5c1obt0h7j"><g transform="translate(613.55 909.4)"><linearGradient id="312dc" x1="44.372972309589386" y1="69.00000044703484" x2="44.372972309589386" y2="0" gradientUnits="userSpaceOnUse"><stop offset="0%" stop-color="rgba(255,255,255,1)"/><stop offset="100%" stop-color="rgba(156,218,215,1)"/></linearGradient><ellipse cx="44.372972309589386" cy="23.000000149011612" rx="44.372972309589386" ry="23.000000149011612" fill="url(#312dc)" stroke="#0072bc" stroke-width="2" stroke-linecap="round" stroke-linejoin="round"/></g><g transform="translate(625.4229723095893, 922.9000001490116) rotate(0, 32.5, 9.5)" width="65" height="19"><text text-decoration="underline" x="7.5" fill="rgb(20, 56, 114)" font-weight="bold" font-size="10pt" font-family="Arial"  y="15">ItemNo#</text><text text-decoration="none" x="57.5" fill="#4b4b4b" font-size="10pt" font-family="noto_regular"  y="15"></text></g></g><g id="7txc57nwtl"><g transform="translate(435.4 813.15)"><linearGradient id="55bac" x1="69.60731410980225" y1="76.50115817785263" x2="69.60731410980225" y2="0" gradientUnits="userSpaceOnUse"><stop offset="0%" stop-color="rgba(255,255,255,1)"/><stop offset="100%" stop-color="rgba(156,218,215,1)"/></linearGradient><ellipse cx="69.60731410980225" cy="25.50038605928421" rx="69.60731410980225" ry="25.50038605928421" fill="url(#55bac)" stroke="#0072bc" stroke-width="2" stroke-linecap="round" stroke-linejoin="round"/></g><g transform="translate(446.5073141098022, 829.1503860592842) rotate(0, 58.5, 9.5)" width="117" height="19"><text text-decoration="none" x="12.5" fill="rgb(20, 56, 114)" font-weight="bold" font-size="10pt" font-family="Arial"  y="15">Item_discription</text><text text-decoration="none" x="104.5" fill="#4b4b4b" font-size="10pt" font-family="noto_regular"  y="15"></text></g></g><g id="162ztiq5pa"><g><path d="M 655,547.85 L 655,464.65" fill="none" stroke="#5e5ca7" stroke-width="1.5" stroke-linecap="round" stroke-linejoin="round"/></g></g><g id="1db7obmngw"><g><path d="M 656.65,813.15 L 656.3,754.6" fill="none" stroke="#5e5ca7" stroke-width="2" stroke-linecap="round" stroke-linejoin="round"/></g></g><g id="2nz8yl8rlp"><g><path d="M 655,597.85 L 656.3,679.6" fill="none" stroke="#5e5ca7" stroke-width="1.5" stroke-linecap="round" stroke-linejoin="round"/></g></g><g id="a91dot24al"><g><path d="M 706.65,838.15 L 743.75,838.15" fill="none" stroke="#5e5ca7" stroke-width="1.5" stroke-linecap="round" stroke-linejoin="round"/></g></g><g id="2iyz17c9jt"><g><path d="M 939.95,838.15 L 873.75,838.15" fill="none" stroke="#5e5ca7" stroke-width="1.5" stroke-linecap="round" stroke-linejoin="round"/></g></g><g id="1x5rfmoped"><g><path d="M 989.95,903.15 L 989.95,863.15" fill="none" stroke="#5e5ca7" stroke-width="1.5" stroke-linecap="round" stroke-linejoin="round"/></g></g><g id="2nkk5g9rfx"><g><path d="M 705,572.85 L 755,574.6" fill="none" stroke="#5e5ca7" stroke-width="1.5" stroke-linecap="round" stroke-linejoin="round"/></g></g><g id="1nkdm2xd6b"><mask id="50dc3" x="862" y="561.6" width="140.95000000000005" height="264.54999999999995" maskUnits="userSpaceOnUse"><rect x="862" y="561.6" width="140.95000000000005" height="264.54999999999995" fill="white" /><rect x="957.2142048859617" y="763.8437892609497" width="30" height="25" fill="black" /></mask><g mask="url(#50dc3)"><path d="M 989.95,813.15 L 875,574.6" fill="none" stroke="#5e5ca7" stroke-width="1.5" stroke-linecap="round" stroke-linejoin="round"/></g><g transform="translate(960.2142048859617, 766.8437892609497)" width="24" height="19"><text text-decoration="none" x="2" fill="rgb(0, 0, 0)" font-size="9pt" font-family="Arial"  y="15">text</text><text text-decoration="none" x="22" fill="#4b4b4b" font-size="10pt" font-family="noto_regular"  y="15"></text></g></g><g id="1w9uc79dmt"><g><path d="M 1039.95,838.15 L 1085,667.3" fill="none" stroke="#5e5ca7" stroke-width="1.5" stroke-linecap="round" stroke-linejoin="round"/></g></g><g id="2mly3x37p6"><g><path d="M 1085,523.95 L 1085,597.3" fill="none" stroke="#5e5ca7" stroke-width="1.5" stroke-linecap="round" stroke-linejoin="round"/></g></g><g id="1dhooejs3g"><g transform="translate(468.35 908.15) rotate(5.255806953293107e-15)"><linearGradient id="a12bd" x1="48.42485809326172" y1="-23.62493133544922" x2="48.42485809326172" y2="47.24986267089844" gradientUnits="userSpaceOnUse"><stop offset="0%" stop-color="rgba(255,255,255,1)"/><stop offset="100%" stop-color="rgba(143,198,61,1)"/></linearGradient><ellipse cx="48.42485809326172" cy="23.62493133544922" rx="48.42485809326172" ry="23.62493133544922" fill="url(#a12bd)" stroke="#007236" stroke-width="2" stroke-linecap="round" stroke-linejoin="round"/></g><g transform="translate(483.27485809326174, 922.2749313354492) rotate(0, 33.5, 9.5)" width="67" height="19"><text text-decoration="none" x="7" fill="rgb(14, 68, 14)" font-weight="bold" font-size="10pt" font-family="Arial"  y="15">Bar&#160;</text><text text-decoration="none" x="30" fill="rgb(14, 68, 14)" font-weight="bold" font-size="10pt" font-family="Arial"  y="15">Code</text><text text-decoration="none" x="60" fill="#4b4b4b" font-size="10pt" font-family="noto_regular"  y="15"></text></g></g><g id="bkdqexo3pj"><g><path d="M 518.35,908.15 L 518.35,885.65 L 567.5,885.65 L 616.65,885.65 L 616.65,863.15" fill="none" stroke="#5e5ca7" stroke-width="2" stroke-linecap="round" stroke-linejoin="round"/></g></g><g id="165q780py0"><g><path d="M 658.55,909.4 L 658.55,886.275 L 657.5999999999999,886.275 L 656.65,886.275 L 656.65,863.15" fill="none" stroke="#5e5ca7" stroke-width="2" stroke-linecap="round" stroke-linejoin="round"/></g></g><g id="1mmoy32zv9"><g transform="translate(1135 810) rotate(5.255806953293107e-15)"><linearGradient id="a12bd" x1="48.42485809326172" y1="-23.62493133544922" x2="48.42485809326172" y2="47.24986267089844" gradientUnits="userSpaceOnUse"><stop offset="0%" stop-color="rgba(255,255,255,1)"/><stop offset="100%" stop-color="rgba(143,198,61,1)"/></linearGradient><ellipse cx="48.42485809326172" cy="23.62493133544922" rx="48.42485809326172" ry="23.62493133544922" fill="url(#a12bd)" stroke="#007236" stroke-width="2" stroke-linecap="round" stroke-linejoin="round"/></g><g transform="translate(1149.9248580932617, 824.1249313354492) rotate(0, 33.5, 9.5)" width="67" height="19"><text text-decoration="none" x="7" fill="rgb(14, 68, 14)" font-weight="bold" font-size="10pt" font-family="Arial"  y="15">Bar&#160;</text><text text-decoration="none" x="30" fill="rgb(14, 68, 14)" font-weight="bold" font-size="10pt" font-family="Arial"  y="15">Code</text><text text-decoration="none" x="60" fill="#4b4b4b" font-size="10pt" font-family="noto_regular"  y="15"></text></g></g><g id="2g9w23d1fm"><g><path d="M 1135,835 L 1087.4772709369659,835 L 1087.4772709369659,836.575 L 1087.4772709369659,838.15 L 1039.95,838.15" fill="none" stroke="#5e5ca7" stroke-width="2" stroke-linecap="round" stroke-linejoin="round"/></g></g><g id="8iw8zl0rzg"><g transform="translate(675 225)"><linearGradient id="ea10d" x1="39.66337290406227" y1="-3.6094665974378586" x2="39.66337290406227" y2="7.218933194875717" gradientUnits="userSpaceOnUse"><stop offset="0%" stop-color="rgba(255,255,255,1)"/><stop offset="100%" stop-color="rgba(143,198,61,1)"/></linearGradient><ellipse cx="39.66337290406227" cy="3.6094665974378586" rx="39.66337290406227" ry="3.6094665974378586" fill="url(#ea10d)" stroke="#007236" stroke-width="2" stroke-linecap="round" stroke-linejoin="round"/></g><g transform="translate(681.1633729040623, 219.10946659743786) rotate(0, 33.5, 9.5)" width="67" height="19"><text text-decoration="none" x="7" fill="rgb(14, 68, 14)" font-weight="bold" font-size="10pt" font-family="Arial"  y="15">Bar&#160;</text><text text-decoration="none" x="30" fill="rgb(14, 68, 14)" font-weight="bold" font-size="10pt" font-family="Arial"  y="15">Code</text><text text-decoration="none" x="60" fill="#4b4b4b" font-size="10pt" font-family="noto_regular"  y="15"></text></g></g><g id="1hu4cnx72s"><g><path d="M 715,270 L 715,292 L 685,292 L 655,292 L 655,315" fill="none" stroke="#5e5ca7" stroke-width="2" stroke-linecap="round" stroke-linejoin="round"/></g></g></svg>